<svg aria-hidden="true"  xmlns="http://www.w3.org/2000/svg" overflow="hidden"><defs><symbol id="icon-eyedropper" viewBox="0 0 32 32"><path d="M30.828 1.172a4 4 0 00-5.657 0l-5.379 5.379-3.793-3.793-4.243 4.243 3.326 3.326L.328 25.081a1.123 1.123 0 00-.322.921h-.008v5a1 1 0 001 1h5.125c.288 0 .576-.11.795-.329l14.754-14.754 3.326 3.326 4.243-4.243-3.793-3.793 5.379-5.379a4 4 0 000-5.657zM5.409 30H2v-3.409l14.674-14.674 3.409 3.409L5.409 30z"/></symbol><symbol id="icon-undo" viewBox="0 0 32 32"><path d="M16 2A15.946 15.946 0 004.687 6.687L.001 2v12h12L7.516 9.515A11.962 11.962 0 0116.001 6c6.627 0 12 5.373 12 12 0 3.584-1.572 6.801-4.063 9l2.646 3a15.96 15.96 0 005.417-12c0-8.837-7.163-16-16-16z"/></symbol><symbol id="icon-redo" viewBox="0 0 32 32"><path d="M0 18a15.96 15.96 0 005.417 12l2.646-3A11.973 11.973 0 014 18C4 11.373 9.373 6 16 6c3.314 0 6.314 1.343 8.485 3.515L20 14h12V2l-4.687 4.687A15.946 15.946 0 0016 2C7.163 2 0 9.163 0 18z"/></symbol><symbol id="icon-equalizer2" viewBox="0 0 32 32"><path d="M28 14h.5c.825 0 1.5-.675 1.5-1.5v-5c0-.825-.675-1.5-1.5-1.5H28V0h-4v6h-.5c-.825 0-1.5.675-1.5 1.5v5c0 .825.675 1.5 1.5 1.5h.5v18h4V14zm-4-6h4v4h-4V8zm-5.5 18c.825 0 1.5-.675 1.5-1.5v-5c0-.825-.675-1.5-1.5-1.5H18V0h-4v18h-.5c-.825 0-1.5.675-1.5 1.5v5c0 .825.675 1.5 1.5 1.5h.5v6h4v-6h.5zM14 20h4v4h-4v-4zm-5.5-6c.825 0 1.5-.675 1.5-1.5v-5C10 6.675 9.325 6 8.5 6H8V0H4v6h-.5C2.675 6 2 6.675 2 7.5v5c0 .825.675 1.5 1.5 1.5H4v18h4V14h.5zM4 8h4v4H4V8z"/></symbol><symbol id="icon-ledoff" viewBox="0 0 64 64"  xmlns="http://www.w3.org/2000/svg"><path d="M43 41V24a11 11 0 00-22 0v17a3.009 3.009 0 00-3 3v2a3.009 3.009 0 003 3h6v9h2v-9h6v13h2V49h6a3.009 3.009 0 003-3v-2a3.009 3.009 0 00-3-3zM23 24a9 9 0 0118 0v17h-4v-8a1 1 0 00-1-1h-3a1.033 1.033 0 00-.71.29l-1.02 1.02-.38-.76A.977.977 0 0030 32h-2a1 1 0 00-1 1v8h-4zm12 10v7h-6v-7h.38l.73 1.45a1 1 0 00.73.54 1.032 1.032 0 00.87-.28l1.7-1.71zm9 12a1 1 0 01-1 1H21a1 1 0 01-1-1v-2a1 1 0 011-1h22a1 1 0 011 1z"/></symbol><symbol id="icon-ledon" viewBox="0 0 64 64"  xmlns="http://www.w3.org/2000/svg"><path d="M32 18v-2a8.009 8.009 0 00-8 8h2a6.006 6.006 0 016-6zM31 2h2v6h-2zM10.077 11.495l1.414-1.414 4.242 4.242-1.414 1.414zM2 31h6v2H2zM56 31h6v2h-6zM48.257 14.326l4.242-4.242 1.414 1.414-4.242 4.242z"/></symbol><symbol id="zoom-1" xmlns="http://www.w3.org/2000/svg"><path d="M9.45 6.967h3.15v2.005H9.45v3.008h-2.1V8.972H4.2V6.967h3.15V3.96h2.1v3.007zM21 18.582L19.515 20l-4.455-4.254 1.485-1.417L21 18.582zM8.4 14.035c-3.473 0-6.3-2.698-6.3-6.015 0-3.316 2.827-6.015 6.3-6.015s6.3 2.699 6.3 6.015c0 3.317-2.827 6.015-6.3 6.015zM8.4 0C3.761 0 0 3.591 0 8.02c0 4.43 3.761 8.02 8.4 8.02s8.4-3.59 8.4-8.02C16.8 3.591 13.039 0 8.4 0z"/></symbol><symbol id="zoom-2" xmlns="http://www.w3.org/2000/svg" viewBox="0 0 21 20"><path d="M8.373 326.967h6.447c.593 0 1.074.45 1.074 1.003 0 .553-.48 1.002-1.074 1.002H8.373c-.593 0-1.075-.449-1.075-1.002 0-.554.482-1.003 1.075-1.003zm15.312 11.321a.955.955 0 0 1 0 1.418c-.42.392-1.1.392-1.52 0l-4.376-3.96 1.52-1.417 4.376 3.96zm-12.089-4.253c-3.554 0-6.447-2.698-6.447-6.015 0-3.316 2.893-6.015 6.447-6.015 3.555 0 6.448 2.699 6.448 6.015 0 3.317-2.893 6.015-6.448 6.015zm0-14.035C6.85 320 3 323.59 3 328.02s3.849 8.02 8.596 8.02c4.748 0 8.597-3.59 8.597-8.02s-3.85-8.02-8.597-8.02z" transform="translate(-3 -320)"/></symbol><symbol id="fireflicker" viewBox="0 0 24 24"  xmlns="http://www.w3.org/2000/svg"><path fill-rule="evenodd" clip-rule="evenodd" d="M10.5067 1.50804C10.6884 1.29895 10.9706 1.20705 11.2406 1.26904C14.8494 2.09755 16.6735 6.05217 16.2445 9.5903C16.0778 10.9657 15.6658 12.0439 15.0592 12.9018C15.0555 12.9071 15.0517 12.9123 15.048 12.9175C15.1858 12.8498 15.3129 12.7767 15.4319 12.6995C16.0238 12.3153 16.4583 11.8083 17.0239 11.1481C17.0923 11.0683 17.1626 10.9863 17.2353 10.902C17.3987 10.7125 17.6459 10.6169 17.8942 10.6473C18.1426 10.6776 18.3595 10.8299 18.4725 11.0531C18.97 12.0363 19.25 13.1479 19.25 14.3226C19.25 18.3267 16.0041 21.5726 12 21.5726C7.99594 21.5726 4.75 18.3267 4.75 14.3226C4.75 11.7856 6.05371 9.5535 8.02431 8.25906L8.09187 8.19098C8.12658 8.15601 8.16464 8.12454 8.20552 8.09703C9.07138 7.5144 9.69312 7.03786 10.1117 6.47743C10.5071 5.94801 10.75 5.3022 10.75 4.32264C10.75 3.59736 10.6161 2.90512 10.3723 2.26809C10.2733 2.00936 10.3249 1.71713 10.5067 1.50804ZM12.1712 3.25081C12.2231 3.60079 12.25 3.95872 12.25 4.32264C12.25 5.59106 11.9223 6.55995 11.3135 7.37505C10.7417 8.14054 9.95028 8.72847 9.10466 9.2999L9.03236 9.37275C8.99362 9.41179 8.95071 9.44644 8.90439 9.4761C7.30648 10.4991 6.25 12.2877 6.25 14.3226C6.25 17.4983 8.82436 20.0726 12 20.0726C15.1756 20.0726 17.75 17.4983 17.75 14.3226C17.75 13.8028 17.6812 13.2997 17.5523 12.8217C17.1721 13.2334 16.7524 13.6307 16.2485 13.9577C15.3253 14.5569 14.1699 14.899 12.5 14.899C12.1577 14.899 11.8589 14.6673 11.7736 14.3358C11.6884 14.0044 11.8383 13.6572 12.1381 13.4921C12.8169 13.1181 13.3923 12.661 13.8345 12.0357C14.2757 11.4118 14.6137 10.5787 14.7555 9.40975C15.0623 6.879 14.0149 4.38107 12.1712 3.25081Z" /></symbol><symbol id="rainbow" xmlns="http://www.w3.org/2000/svg" viewBox="0 0 512 512"><path d="M411.628 407.578h-14.701a7.603 7.603 0 00-7.604 7.604c0 4.2 3.404 7.604 7.604 7.604h14.701c4.2 0 7.604-3.404 7.604-7.604s-3.404-7.604-7.604-7.604zM78.252 179.947a7.604 7.604 0 00-10.673 1.318 240.207 240.207 0 00-15.935 23.097 7.604 7.604 0 0013.003 7.887 225.16 225.16 0 0114.922-21.63 7.604 7.604 0 00-1.317-10.672z"/><path d="M494.256 344.848c.387-5.574.595-11.206.595-16.786 0-63.798-24.845-123.778-69.957-168.89-45.112-45.113-105.092-69.957-168.891-69.957-64.292 0-124.601 25.175-169.818 70.888a7.603 7.603 0 1010.812 10.694c16.338-16.518 34.789-30.158 54.738-40.699l-9.558 17.475-19.814 10.836a7.604 7.604 0 000 13.342l7.004 3.83c-39.654 33.003-65.164 80.369-70.557 131.58-6.488 8.418-10.9 18.514-12.433 29.526-1.086-.082-8.358-1.256-13.801 1.183-.142-3.27-.214-6.548-.214-9.81 0-31.788 6.529-62.492 19.406-91.264a7.604 7.604 0 00-3.834-10.046 7.603 7.603 0 00-10.047 3.834c-13.757 30.737-20.732 63.533-20.732 97.476 0 5.586.206 11.212.593 16.783C7.001 352.692 0 365.378 0 379.676c0 23.771 19.339 43.11 43.11 43.11a7.604 7.604 0 000-15.208c-15.385 0-27.902-12.516-27.902-27.902 0-15.386 12.517-27.904 27.902-27.904 2.74 0 5.459.401 8.08 1.192a7.605 7.605 0 009.794-7.66c.044-26.18 21.356-47.463 47.546-47.463 26.189 0 47.499 21.284 47.546 47.462a9.769 9.769 0 00-.007.344 7.602 7.602 0 009.801 7.317 27.947 27.947 0 018.079-1.192c15.386 0 27.904 12.518 27.904 27.904s-12.517 27.902-27.904 27.902H83.644a7.604 7.604 0 000 15.208h90.309c23.772 0 43.111-19.339 43.111-43.11 0-23.772-19.339-43.111-43.111-43.111-1.092 0-2.181.042-3.267.124-1.657-11.898-6.673-22.728-14.041-31.526 10.586-45.961 51.969-79.077 99.359-79.077 47.387 0 88.771 33.113 99.358 79.072-7.371 8.798-12.389 19.631-14.047 31.531a43.356 43.356 0 00-3.267-.124c-23.771 0-43.11 19.339-43.11 43.111 0 23.771 19.339 43.11 43.11 43.11H468.89c23.771 0 43.11-19.339 43.11-43.11 0-14.296-6.999-26.981-17.744-34.828zM256.003 104.422c123.315 0 223.641 100.325 223.641 223.64 0 3.259-.078 6.537-.22 9.81-3.373-.851-7.666-1.68-13.803-1.183-1.533-11.006-5.942-21.098-12.425-29.515-5.079-48.284-27.761-92.949-63.926-125.827-36.585-33.261-83.913-51.577-133.267-51.577-27.624 0-54.339 5.606-79.449 16.633l-10.196-18.643a7.6 7.6 0 00-3.389-3.195c28.807-13.188 60.368-20.143 93.034-20.143zm139.344 133.676l15.318-8.378c11.72 18.478 20.233 39.28 24.75 61.681a62.312 62.312 0 00-28.318-8.652c-3.834-12.769-9.297-24.978-16.255-36.416l4.505-8.235zm-9.251-12.274a7.602 7.602 0 00-3.022 3.022l-5.234 9.57-5.235-9.57a7.602 7.602 0 00-3.022-3.022l-9.57-5.234 9.57-5.235a7.602 7.602 0 003.022-3.022l5.235-9.569 5.234 9.569a7.602 7.602 0 003.022 3.022l9.57 5.235-9.57 5.234zm-234.667-65.977a7.608 7.608 0 003.022-3.022l5.235-9.569 5.234 9.569a7.602 7.602 0 003.022 3.022l9.57 5.234-9.57 5.235a7.608 7.608 0 00-3.022 3.022l-5.234 9.569-5.235-9.569a7.602 7.602 0 00-3.022-3.022l-9.57-5.235 9.57-5.234zm-46.526 122.902a62.315 62.315 0 00-28.272 8.624c8.654-42.144 32.169-80.353 66.374-107.269l10.009 18.299a7.6 7.6 0 003.582 3.292c-24.024 19.506-42.39 46.057-51.693 77.054zm151.1-71.872c-51.63 0-97.076 34.203-112.022 82.767a62.429 62.429 0 00-23.467-9.855c19.037-58.208 73.73-98.259 135.488-98.259a7.604 7.604 0 000-15.208c-31.39 0-61.13 9.354-86.158 25.704l7.349-13.438 19.814-10.837a7.604 7.604 0 000-13.342l-4.077-2.229c20.142-7.432 41.299-11.204 63.071-11.204 43.142 0 82.931 14.802 114.324 39.83l-9.997 18.276-4.852 2.654c-14.761-12.031-31.338-21.196-49.322-27.241a7.61 7.61 0 00-9.631 4.785 7.606 7.606 0 004.785 9.631 141.662 141.662 0 0139.636 20.774l-.429.234a7.604 7.604 0 000 13.342l19.814 10.836 10.837 19.814a7.604 7.604 0 006.671 3.955 7.588 7.588 0 003.81-1.029 141.452 141.452 0 019.822 22.954 62.396 62.396 0 00-23.448 9.85c-14.944-48.562-60.388-82.764-112.018-82.764zM468.89 407.578H338.049c-15.386 0-27.902-12.517-27.902-27.902s12.517-27.904 27.902-27.904c2.739 0 5.459.401 8.081 1.192a7.608 7.608 0 006.761-1.197 7.612 7.612 0 003.04-6.157l-.008-.284c.033-26.189 21.351-47.484 47.546-47.484 26.19 0 47.502 21.286 47.546 47.466a7.603 7.603 0 009.795 7.655 27.941 27.941 0 018.079-1.192c15.386 0 27.902 12.518 27.902 27.904s-12.516 27.903-27.901 27.903z"/></symbol></defs></svg>


